<svg xmlns="http://www.w3.org/2000/svg" width="49" height="49" viewBox="0 0 49 49">
  <g id="twitter" transform="translate(-0.001)">
    <circle id="Ellipse_3" data-name="Ellipse 3" cx="24.5" cy="24.5" r="24.5" transform="translate(0.001 0)" fill="#55acee"/>
    <g id="Group_44" data-name="Group 44" transform="translate(10.34 14.316)">
      <path id="Path_47" data-name="Path 47" d="M54.812,36.886a12.161,12.161,0,0,1-3.5.959,6.112,6.112,0,0,0,2.681-3.371,12.2,12.2,0,0,1-3.871,1.479,6.1,6.1,0,0,0-10.387,5.56,17.3,17.3,0,0,1-12.564-6.369,6.1,6.1,0,0,0,1.886,8.138,6.052,6.052,0,0,1-2.761-.763c0,.026,0,.052,0,.077a6.1,6.1,0,0,0,4.89,5.976,6.119,6.119,0,0,1-2.752.105,6.1,6.1,0,0,0,5.694,4.233A12.3,12.3,0,0,1,25.1,55.433a17.241,17.241,0,0,0,9.343,2.739c11.211,0,17.342-9.288,17.342-17.343,0-.264-.006-.527-.018-.788a12.36,12.36,0,0,0,3.042-3.155Z" transform="translate(-25.103 -34.028)" fill="#f1f2f2"/>
    </g>
  </g>
</svg>
